<?xml version="1.0" encoding="UTF-8"?>
<svg width="512" height="512" viewBox="0 0 512 512" fill="none" xmlns="http://www.w3.org/2000/svg">
    <circle cx="256" cy="256" r="256" fill="#FF69B4"/>
    <path d="M256 128C181.888 128 128 181.888 128 256C128 330.112 181.888 384 256 384C330.112 384 384 330.112 384 256C384 181.888 330.112 128 256 128ZM200 236C211.046 236 220 244.954 220 256C220 267.046 211.046 276 200 276C188.954 276 180 267.046 180 256C180 244.954 188.954 236 200 236ZM312 236C323.046 236 332 244.954 332 256C332 267.046 323.046 276 312 276C300.954 276 292 267.046 292 256C292 244.954 300.954 236 312 236ZM256 320C223.49 320 196 307.49 196 292H316C316 307.49 288.51 320 256 320Z" fill="white"/>
</svg>